name ./resultDataOpenSim/trcMotMarkerGrf/sub09/grf-14-05.mot
datacolumns 19
datarows 12
range 0.48400000 0.52800000
endheader

                time	     ground_force_vx	     ground_force_vy	     ground_force_vz	     ground_force_px	     ground_force_py	     ground_force_pz	   l_ground_force_vx	   l_ground_force_vy	   l_ground_force_vz	   l_ground_force_px	   l_ground_force_py	   l_ground_force_pz	     ground_torque_x	     ground_torque_y	     ground_torque_z	   l_ground_torque_x	   l_ground_torque_y	   l_ground_torque_z	
          0.48400000	         42.34509046	        408.18799656	        -17.95450254	         -0.68270731	          0.00000000	          0.11287235	          0.00000000	          0.00000000	          0.00000000	          0.00000000	          0.00000000	          0.00000000	          0.00000000	          4.26817589	          0.00000000	          0.00000000	          0.00000000	          0.00000000	
          0.48800000	         46.44136110	        416.73276563	        -19.68833462	         -0.68190702	          0.00000000	          0.11342433	          0.00000000	          0.00000000	          0.00000000	          0.00000000	          0.00000000	          0.00000000	          0.00000000	          4.32978704	          0.00000000	          0.00000000	          0.00000000	          0.00000000	
          0.49200000	         50.46232162	        426.33698797	        -21.20866793	         -0.68099814	          0.00000000	          0.11390296	          0.00000000	          0.00000000	          0.00000000	          0.00000000	          0.00000000	          0.00000000	          0.00000000	          4.43435204	          0.00000000	          0.00000000	          0.00000000	          0.00000000	
          0.49600000	         54.39029109	        436.96363532	        -22.44371453	         -0.68006183	          0.00000000	          0.11427701	          0.00000000	          0.00000000	          0.00000000	          0.00000000	          0.00000000	          0.00000000	          0.00000000	          4.59656067	          0.00000000	          0.00000000	          0.00000000	          0.00000000	
          0.50000000	         58.20548335	        448.32203429	        -23.37522302	         -0.67898371	          0.00000000	          0.11461440	          0.00000000	          0.00000000	          0.00000000	          0.00000000	          0.00000000	          0.00000000	          0.00000000	          4.81730583	          0.00000000	          0.00000000	          0.00000000	          0.00000000	
          0.50400000	         61.85151534	        460.03450338	        -24.04895695	         -0.67747570	          0.00000000	          0.11503347	          0.00000000	          0.00000000	          0.00000000	          0.00000000	          0.00000000	          0.00000000	          0.00000000	          5.08239145	          0.00000000	          0.00000000	          0.00000000	          0.00000000	
          0.50800000	         65.25619821	        471.91629204	        -24.58886412	         -0.67549248	          0.00000000	          0.11554200	          0.00000000	          0.00000000	          0.00000000	          0.00000000	          0.00000000	          0.00000000	          0.00000000	          5.36477445	          0.00000000	          0.00000000	          0.00000000	          0.00000000	
          0.51200000	         68.38854603	        484.03557203	        -25.17675351	         -0.67327010	          0.00000000	          0.11604940	          0.00000000	          0.00000000	          0.00000000	          0.00000000	          0.00000000	          0.00000000	          0.00000000	          5.62958372	          0.00000000	          0.00000000	          0.00000000	          0.00000000	
          0.51600000	         71.24178412	        496.49334889	        -26.00244802	         -0.67105588	          0.00000000	          0.11648788	          0.00000000	          0.00000000	          0.00000000	          0.00000000	          0.00000000	          0.00000000	          0.00000000	          5.84063035	          0.00000000	          0.00000000	          0.00000000	          0.00000000	
          0.52000000	         73.77135611	        509.19182409	        -27.21305361	         -0.66886220	          0.00000000	          0.11687432	          0.00000000	          0.00000000	          0.00000000	          0.00000000	          0.00000000	          0.00000000	          0.00000000	          5.96712890	          0.00000000	          0.00000000	          0.00000000	          0.00000000	
          0.52400000	         75.90774351	        521.84852858	        -28.88290971	         -0.66651002	          0.00000000	          0.11727079	          0.00000000	          0.00000000	          0.00000000	          0.00000000	          0.00000000	          0.00000000	          0.00000000	          5.98944210	          0.00000000	          0.00000000	          0.00000000	          0.00000000	
          0.52800000	         77.63307955	        534.25169925	        -31.00313832	         -0.66386532	          0.00000000	          0.11771372	          0.00000000	          0.00000000	          0.00000000	          0.00000000	          0.00000000	          0.00000000	          0.00000000	          5.90273902	          0.00000000	          0.00000000	          0.00000000	          0.00000000	
